<svg width="350" height="224" viewBox="0 0 350 224" fill="none" xmlns="http://www.w3.org/2000/svg"><path d="M244.436 139.283L292.317 56.3503L340.198 139.283H244.436Z" fill="none" stroke="currentColor" stroke-width="2"/><path d="M85.0571 134.141L132.938 51.2091L180.819 134.141H85.0571Z" fill="none" stroke="currentColor" stroke-width="2"/><path d="M87.995 193.633L135.876 110.701L183.757 193.633H87.995Z" fill="none" stroke="currentColor" stroke-width="2"/><path d="M9.40722 173.803L57.2883 90.8702L105.169 173.803H9.40722Z" fill="none" stroke="currentColor" stroke-width="2"/><path d="M19.6898 116.514L67.5708 33.582L115.452 116.514H19.6898Z" fill="none" stroke="currentColor" stroke-width="2"/><path d="M66.6955 84.9324L114.577 2L162.458 84.9324H66.6955Z" fill="none" stroke="currentColor" stroke-width="2"/><path d="M205.509 159.848L253.39 76.9154L301.271 159.848H205.509Z" fill="none" stroke="currentColor" stroke-width="2"/><path d="M155.566 106.232L203.447 23.2994L251.328 106.232H155.566Z" fill="none" stroke="currentColor" stroke-width="2"/><path d="M142.345 150.3L190.226 67.3673L238.107 150.3H142.345Z" fill="none" stroke="currentColor" stroke-width="2"/></svg>

